Coordinates
version=1
nRows=10
nColumns=46
inDegrees=yes

Units are S.I. units (second, meters, Newtons, ...)
Angles are in degrees.

endheader
time	pelvis_tilt	pelvis_list	pelvis_rotation	pelvis_tx	pelvis_ty	pelvis_tz	bb_angle	bb_tx	bb_ty	bb_tz	hip_flexion_r	hip_adduction_r	hip_rotation_r	knee_angle_r	knee_angle_r_beta	ankle_angle_r	subtalar_angle_r	mtp_angle_r	crank_angle_r	hip_flexion_l	hip_adduction_l	hip_rotation_l	knee_angle_l	knee_angle_l_beta	ankle_angle_l	subtalar_angle_l	mtp_angle_l	crank_angle_l	lumbar_extension	lumbar_bending	lumbar_rotation	arm_flex_r	arm_add_r	arm_rot_r	elbow_flex_r	pro_sup_r	wrist_flex_r	wrist_dev_r	arm_flex_l	arm_add_l	arm_rot_l	elbow_flex_l	pro_sup_l	wrist_flex_l	wrist_dev_l
      7.50500000	    -13.11429044	     -3.43782202	     -3.36689468	      0.14996368	      1.13473112	     -0.24291630	      0.00000000	      0.50000000	      0.00000000	      0.25000000	     66.13106342	      5.37337012	      9.07601836	    103.64551399	      1.80895547	      6.79075006	    -11.10316726	      0.00000000	      0.00000000	     40.88121338	     -6.49611711	      4.25835152	     28.88975036	      0.50422126	     -3.14553142	     -8.09258748	      0.00000000	      0.00000000	    -64.45644586	      2.07299744	      2.16483692	     89.48019919	    -17.85475832	     44.85424241	     59.02712161	     42.84284843	      0.00000000	      0.00000000	     79.41736015	    -28.17996126	     33.82779830	     69.20280914	     46.97355842	      0.00000000	      0.00000000
      7.51000000	    -13.42639662	     -3.92125618	     -4.09624685	      0.14961293	      1.13450229	     -0.24327985	      0.00000000	      0.50000000	      0.00000000	      0.25000000	     67.83337057	      6.08669117	      8.88972932	    104.76768794	      1.82854110	      7.35624087	    -10.42803143	      0.00000000	      0.00000000	     39.64726627	     -7.53250183	      3.21292759	     26.95028311	      0.47037117	     -4.22451037	     -6.93822379	      0.00000000	      0.00000000	    -64.24655536	      2.25321735	      3.16072276	     89.50196016	    -17.88647124	     44.98431702	     59.28997319	     42.77569425	      0.00000000	      0.00000000	     79.10938992	    -28.30363646	     33.78522196	     68.99777469	     47.02881988	      0.00000000	      0.00000000
      7.51500000	    -13.75865147	     -4.42551964	     -4.54676194	      0.14896615	      1.13407440	     -0.24418189	      0.00000000	      0.50000000	      0.00000000	      0.25000000	     69.59963086	      6.40789759	      8.41715394	    105.80249340	      1.84660187	      7.67262517	     -9.97762048	      0.00000000	      0.00000000	     38.58726286	     -8.36625669	      2.44931763	     25.22117803	      0.44019260	     -5.30318993	     -5.77301490	      0.00000000	      0.00000000	    -64.00895235	      2.68199011	      4.00267697	     89.53328547	    -17.80626419	     44.99845584	     59.49903649	     42.77626372	      0.00000000	      0.00000000	     78.91612583	    -28.53261860	     33.77821858	     68.82394003	     47.02522281	      0.00000000	      0.00000000
      7.52000000	    -14.18558255	     -4.79307921	     -5.09049959	      0.14894680	      1.13361160	     -0.24502308	      0.00000000	      0.50000000	      0.00000000	      0.25000000	     71.39110276	      6.73177887	      8.12812876	    106.71511114	      1.86253005	      8.19251220	     -9.40560013	      0.00000000	      0.00000000	     37.58200959	     -9.15295626	      1.34186694	     23.58367446	      0.41161277	     -6.22587280	     -4.41112857	      0.00000000	      0.00000000	    -63.69613396	      2.99945844	      4.78362265	     89.53906735	    -17.75064550	     45.06621646	     59.77973716	     42.78714792	      0.00000000	      0.00000000	     78.51741374	    -28.73532887	     33.79451920	     68.64731632	     47.02934576	      0.00000000	      0.00000000
      7.52500000	    -14.22492065	     -4.85931113	     -5.92371044	      0.14871865	      1.13361372	     -0.24496478	      0.00000000	      0.50000000	      0.00000000	      0.25000000	     72.79038505	      7.26348621	      8.28555515	    107.55528119	      1.87719378	      8.86170773	     -8.33754969	      0.00000000	      0.00000000	     36.22135270	     -9.96066756	     -0.79168406	     22.27742028	      0.38881433	     -6.58988631	     -2.16734302	      0.00000000	      0.00000000	    -63.72305233	      2.73850421	      5.46738408	     89.55842505	    -18.06369524	     45.41727764	     60.35268878	     42.75657425	      0.00000000	      0.00000000	     78.29536663	    -28.75278537	     33.62747325	     68.52059135	     47.08691972	      0.00000000	      0.00000000
      7.53000000	    -14.52947720	     -5.18692888	     -6.33708012	      0.14845155	      1.13322058	     -0.24577360	      0.00000000	      0.50000000	      0.00000000	      0.25000000	     74.38452657	      7.44821389	      7.93007024	    108.18763177	      1.88823038	      9.20185368	     -7.87474528	      0.00000000	      0.00000000	     35.28308074	    -10.61773301	     -1.95844808	     21.05255934	      0.36743648	     -6.95198677	     -1.21931486	      0.00000000	      0.00000000	    -63.53200930	      3.11469806	      6.15769510	     89.57354346	    -18.02354237	     45.46902721	     60.66141999	     42.75475343	      0.00000000	      0.00000000	     78.03556651	    -28.95035204	     33.62386483	     68.32247037	     47.08814333	      0.00000000	      0.00000000
      7.53500000	    -14.75903948	     -5.36792071	     -6.62822440	      0.14783550	      1.13270998	     -0.24676898	      0.00000000	      0.50000000	      0.00000000	      0.25000000	     75.91318625	      7.40934314	      7.72218793	    108.71432244	      1.89742287	      9.49365918	     -7.25915771	      0.00000000	      0.00000000	     34.39898544	    -10.98268740	     -2.87171925	     20.07543506	      0.35038244	     -7.89148835	      0.27039086	      0.00000000	      0.00000000	    -63.39219957	      3.47033615	      6.69059501	     89.59200564	    -18.01888525	     45.51753152	     60.92331279	     42.75298825	      0.00000000	      0.00000000	     77.93081821	    -29.11518086	     33.60072031	     68.16190947	     47.08528657	      0.00000000	      0.00000000
      7.54000000	    -14.94962849	     -5.51314428	     -7.05861746	      0.14752126	      1.13243776	     -0.24713729	      0.00000000	      0.50000000	      0.00000000	      0.25000000	     77.32081627	      7.46366037	      7.51628334	    109.07714428	      1.90375531	      9.94341071	     -6.34418491	      0.00000000	      0.00000000	     33.47240307	    -11.46459435	     -4.12079378	     19.23750707	      0.33575784	     -8.21510209	      1.73331911	      0.00000000	      0.00000000	    -63.27050706	      3.60901846	      7.17975744	     89.60404202	    -18.04638048	     45.61659901	     61.27287187	     42.75274153	      0.00000000	      0.00000000	     77.72642182	    -29.28311205	     33.61733181	     67.93936161	     47.08415165	      0.00000000	      0.00000000
      7.54500000	    -15.18572230	     -5.59048769	     -7.44598588	      0.14746229	      1.13213877	     -0.24764386	      0.00000000	      0.50000000	      0.00000000	      0.25000000	     78.65488816	      7.42656452	      7.36317156	    109.28513460	      1.90738542	     10.51160641	     -5.45358190	      0.00000000	      0.00000000	     32.74512545	    -11.85357120	     -5.48427452	     18.75446758	      0.32732721	     -8.31419600	      3.21180181	      0.00000000	      0.00000000	    -63.15210826	      3.74609084	      7.62728595	     89.61119652	    -18.12933929	     45.79423455	     61.65628020	     42.74254598	      0.00000000	      0.00000000	     77.58057903	    -29.41532388	     33.61734760	     67.72252771	     47.09020201	      0.00000000	      0.00000000
      7.55000000	    -15.35195521	     -5.63531269	     -7.74788575	      0.14694841	      1.13168160	     -0.24782981	      0.00000000	      0.50000000	      0.00000000	      0.25000000	     79.83721276	      7.35050286	      7.17619822	    109.36657932	      1.90880690	     11.30164913	     -4.62669281	      0.00000000	      0.00000000	     32.22331673	    -12.19818029	     -6.76609815	     18.76706257	      0.32754703	     -8.13685146	      4.51457307	      0.00000000	      0.00000000	    -63.04203728	      3.85582754	      8.01011133	     89.62102162	    -18.27890416	     45.95207109	     62.03461739	     42.69198527	      0.00000000	      0.00000000	     77.61182573	    -29.50991484	     33.62740528	     67.46952130	     47.10152085	      0.00000000	      0.00000000
